{"title":"TANU WEDS MANU RETURNS (2015) 1CD pDVDRIP (New Source) - XVID MP","uid":11957977,"size":745357866,"categoryP":"video","categoryS":"other","magnet":"?xt=urn:btih:8306f90f8eb18a34e9485da6e5aead6fc8ebf17f&amp;dn=TANU+WEDS+MANU+RETURNS+%282015%29+1CD+pDVDRIP+%28New+Source%29+-+XVID+MP&amp;tr=udp%3A%2F%2Ftracker.openbittorrent.com%3A80&amp;tr=udp%3A%2F%2Fopen.demonii.com%3A1337&amp;tr=udp%3A%2F%2Ftracker.coppersurfer.tk%3A6969&amp;tr=udp%3A%2F%2Fexodus.desync.com%3A6969","seeders":13,"leechers":8,"uploader":"SS132203","files":19,"time":1432489550,"description":"TANU WEDS MANU RETURNS (2015) 1CD pDVDRIP (New Source) - XVID MP3 - DUS\n &lt;a href=&quot;\nhttp://imgsparrow.co/image/hi&quot; rel=&quot;nofollow&quot; target=&quot;_NEW&quot;&gt;\nhttp://imgsparrow.co/image/hi&lt;/a&gt;\n &lt;a href=&quot;\nhttp://imgsparrow.co/image/jQ&quot; rel=&quot;nofollow&quot; target=&quot;_NEW&quot;&gt;\nhttp://imgsparrow.co/image/jQ&lt;/a&gt;\n\nInfo : - \n\nAll Credits to Team DUS\nSample Within Torrent\n\n1CD pDVD RIP (New Source) - XVID - MP3 \n\nRipper's Note : XVID EXCLUSIVE RIP FOR MY DEAR FRIEND, OUR KHABRI, &quot;HOTTY THE HUNTERRR&quot;\n\nYear.............: 2015\nRipper...........: Apka Sallu\nSource...........: DUS Warehouse\nContainer........: AVI\nResolution.......: 640 x 262\nOverall Bitrate..: 758 Kbps\nAudio Language...: Hindi\nRun Time.........: 2hrs 09Mnts\nAudio............: MP3 @ 64 KBPS\nSubtitle.........: None on Source\nFrame rate.......: 23.976 fps\n\nFormat                                   : AVI\nFormat/Info                              : Audio Video Interleave\nFile size                                : 704 MiB\nDuration                                 : 2h 9mn\nOverall bit rate mode                    : Variable\nOverall bit rate                         : 758 Kbps\n\nVideo\nID                                       : 0\nFormat                                   : MPEG-4 Visual\nFormat profile                           : Advanced Simple@L5\nFormat settings, BVOP                    : 2\nFormat settings, QPel                    : Yes\nFormat settings, GMC                     : No warppoints\nFormat settings, Matrix                  : Default (H.263)\nCodec ID                                 : XVID\nCodec ID/Hint                            : XviD\nDuration                                 : 2h 9mn\nBit rate                                 : 684 Kbps\nWidth                                    : 640 pixels\nHeight                                   : 262 pixels\nDisplay aspect ratio                     : 2.40:1\nFrame rate                               : 29.970 fps\nColor space                              : YUV\nChroma subsampling                       : 4:2:0\nBit depth                                : 8 bits\nScan type                                : Progressive\nCompression mode                         : Lossy\nBits/(Pixel*Frame)                       : 0.136\nStream size                              : 635 MiB (90%)\n\nAudio\nID                                       : 1\nFormat                                   : MPEG Audio\nFormat version                           : Version 1\nFormat profile                           : Layer 3\nCodec ID                                 : 55\nCodec ID/Hint                            : MP3\nDuration                                 : 2h 9mn\nBit rate mode                            : Variable\nBit rate                                 : 60.4 Kbps\nNominal bit rate                         : 64.0 Kbps\nChannel(s)                               : 1 channel\nSampling rate                            : 48.0 KHz\nCompression mode                         : Lossy\nStream size                              : 56.0 MiB (8%)\n\nScreens : - \n &lt;a href=&quot;\nhttp://imgsparrow.co/image/jM&quot; rel=&quot;nofollow&quot; target=&quot;_NEW&quot;&gt;\nhttp://imgsparrow.co/image/jM&lt;/a&gt; &lt;a href=&quot;\nhttp://imgsparrow.co/image/jm&quot; rel=&quot;nofollow&quot; target=&quot;_NEW&quot;&gt;\nhttp://imgsparrow.co/image/jm&lt;/a&gt; &lt;a href=&quot;\nhttp://imgsparrow.co/image/jF&quot; rel=&quot;nofollow&quot; target=&quot;_NEW&quot;&gt;\nhttp://imgsparrow.co/image/jF&lt;/a&gt; &lt;a href=&quot;\nhttp://imgsparrow.co/image/jO&quot; rel=&quot;nofollow&quot; target=&quot;_NEW&quot;&gt;\nhttp://imgsparrow.co/image/jO&lt;/a&gt; &lt;a href=&quot;\nhttp://imgsparrow.co/image/jp&quot; rel=&quot;nofollow&quot; target=&quot;_NEW&quot;&gt;\nhttp://imgsparrow.co/image/jp&lt;/a&gt; &lt;a href=&quot;\nhttp://imgsparrow.co/image/j0&quot; rel=&quot;nofollow&quot; target=&quot;_NEW&quot;&gt;\nhttp://imgsparrow.co/image/j0&lt;/a&gt; &lt;a href=&quot;\nhttp://imgsparrow.co/image/jB&quot; rel=&quot;nofollow&quot; target=&quot;_NEW&quot;&gt;\nhttp://imgsparrow.co/image/jB&lt;/a&gt; &lt;a href=&quot;\nhttp://imgsparrow.co/image/jK&quot; rel=&quot;nofollow&quot; target=&quot;_NEW&quot;&gt;\nhttp://imgsparrow.co/image/jK&lt;/a&gt; &lt;a href=&quot;\nhttp://imgsparrow.co/image/j2&quot; rel=&quot;nofollow&quot; target=&quot;_NEW&quot;&gt;\nhttp://imgsparrow.co/image/j2&lt;/a&gt; &lt;a href=&quot;\nhttp://imgsparrow.co/image/j3&quot; rel=&quot;nofollow&quot; target=&quot;_NEW&quot;&gt;\nhttp://imgsparrow.co/image/j3&lt;/a&gt;\n &lt;a href=&quot;\nhttp://imgsparrow.co/image/N2&quot; rel=&quot;nofollow&quot; target=&quot;_NEW&quot;&gt;\nhttp://imgsparrow.co/image/N2&lt;/a&gt;","torrent":{"xt":"urn:btih:8306f90f8eb18a34e9485da6e5aead6fc8ebf17f","amp;dn":"TANU+WEDS+MANU+RETURNS+%282015%29+1CD+pDVDRIP+%28New+Source%29+-+XVID+MP","amp;tr":["udp%3A%2F%2Ftracker.openbittorrent.com%3A80","udp%3A%2F%2Fopen.demonii.com%3A1337","udp%3A%2F%2Ftracker.coppersurfer.tk%3A6969","udp%3A%2F%2Fexodus.desync.com%3A6969"],"infoHash":"8306f90f8eb18a34e9485da6e5aead6fc8ebf17f","infoHashBuffer":{"type":"Buffer","data":[131,6,249,15,142,177,138,52,233,72,93,166,229,174,173,111,200,235,241,127]},"announce":[],"urlList":[]}}